<svg xmlns="http://www.w3.org/2000/svg" viewBox="0 0 867 271.65"><defs><style>.cls-1{fill:#f54900;}.cls-2{fill:#ca3500;}</style></defs><g><g><circle class="cls-1" cx="68.44" cy="113.34" r="9.69"/><circle class="cls-2" cx="134.72" cy="112.71" r="9.69"/><path class="cls-2" d="M102.4,163.58a39.93,39.93,0,0,1-6.37-.39,29.53,29.53,0,0,1-11.79-4l-.15-.1a5.58,5.58,0,0,1-2.44-2.76,4.37,4.37,0,0,1,0-2.43c.47-1.84,1.64-3.88,3.8-3.82a6,6,0,0,1,2.62.91c.87.47,1.75.89,2.65,1.27a28,28,0,0,0,6,1.73q1.14.18,2.28.27a30,30,0,0,0,12.32-1.54,17,17,0,0,0,3.43-1.67c.29-.17.57-.36.86-.52a3.92,3.92,0,0,1,2.84-.6,3.19,3.19,0,0,1,1.54,1c1.43,1.57,2.59,4.31,1.43,6.31-.88,1.52-2.84,2.27-4.35,3a35.06,35.06,0,0,1-5.88,2.15c-.84.23-1.69.42-2.55.58A40.09,40.09,0,0,1,102.4,163.58Z"/><path class="cls-1" d="M86,2.12c-6,2-11.53,5.18-17.16,8C63,13,57,15.86,51.13,18.72c-6.14,3-12.27,6-18.31,9.13-8.08,4.24-16.21,8.95-22,16C2.15,54.51,0,69,0,82.76s2,27.54.26,41.16c7.72-2.46,15.4-6.31,20.1-12.91,3.53-5,5.08-11,7.39-16.64A48,48,0,0,1,39,77.39c8-7.54,18.75-11.21,29.32-13.48a145.41,145.41,0,0,1,30.66-3l3.15,0L102.29,0a60.46,60.46,0,0,0-12.8,1.18A33.48,33.48,0,0,0,86,2.12Z"/><path class="cls-2" d="M201.84,74c-1-9.88-3.08-19.93-8.65-28.13-6.1-9-15.75-14.89-25.54-19.58-5.17-2.48-10.46-4.69-15.65-7.14-5-2.37-9.79-5.23-14.63-7.9-1.92-1.06-4-1.94-5.93-2.86s-4-1.85-6-2.74l-.49-.21a59.73,59.73,0,0,0-11.87-4.16A57.9,57.9,0,0,0,102,0l-.16,60.89c3.54.06,7.32.23,11.33.53,14.15,1.08,28.35,3.12,41.13,9.73,6.67,3.46,12.75,8.39,16.53,14.89,3.93,6.76,5.18,14.8,9,21.64A33.21,33.21,0,0,0,202,123.94c.32-16.36,1.41-32.76-.08-49.06Z"/><path class="cls-1" d="M.9,160.24c-.07,6.27,0,12.53,0,18.79,0,6.63-.12,13.26.39,19.87.15,1.91.35,3.82.62,5.72,1.48,10.56,5.26,21.18,12.82,28.7,6.63,6.59,15.55,10.25,23.73,14.79,7.75,4.3,15,9.48,22.68,13.86a74.45,74.45,0,0,0,16.49,7.2,75.65,75.65,0,0,0,17.85,2.44q3.38.11,6.76-.05V200.27a303.06,303.06,0,0,1-36.13-2.54,56.12,56.12,0,0,1-16.14-4.35,46.18,46.18,0,0,1-18.35-16.06c-1.69-2.48-3.22-5.15-5.52-7.08a23.11,23.11,0,0,0-8-3.88c-2.83-.91-5.57-2-8.37-3Z"/><path class="cls-2" d="M203.52,160.24c.06,6.27,0,12.53,0,18.79,0,6.63.12,13.26-.39,19.87-.15,1.91-.35,3.82-.62,5.72-1.48,10.56-5.26,21.18-12.82,28.7-6.63,6.59-15.54,10.25-23.73,14.79-7.75,4.3-15,9.48-22.67,13.86a74.86,74.86,0,0,1-16.49,7.2A75.73,75.73,0,0,1,109,271.61q-3.37.11-6.75-.05V200.27a303,303,0,0,0,36.12-2.54,56,56,0,0,0,16.14-4.35,46.18,46.18,0,0,0,18.35-16.06c1.69-2.48,3.22-5.15,5.52-7.08a23.11,23.11,0,0,1,8-3.88c2.83-.91,5.57-2,8.37-3Z"/><path d="M284.38,190.77V89.19h21.14V190.77Z"/><path d="M331,190.77V134.05H318.47V116.32H331v-1.09q0-8.87,3.47-15a23.16,23.16,0,0,1,10-9.41,35.12,35.12,0,0,1,15.82-3.27,37.68,37.68,0,0,1,3.82.21c1.36.13,2.5.29,3.41.47v17.46a18.2,18.2,0,0,0-2.39-.34c-.68,0-1.39-.07-2.11-.07q-5.73,0-8.66,2.52c-2,1.68-2.93,4.16-2.93,7.43v1.09h15.95v17.73H351.47v56.72Z"/><path d="M377.92,190.77V116.32H397v17.86l-1.37-2.59q2.46-9.41,8.12-12.75a26,26,0,0,1,13.43-3.34h4.36v17.73h-6.41q-7.5,0-12.13,4.57t-4.64,12.88v40.09Z"/><path d="M453.59,192.41a34.36,34.36,0,0,1-13.91-2.59,20,20,0,0,1-9-7.44,20.69,20.69,0,0,1-3.13-11.52,21.4,21.4,0,0,1,2.86-11.11,22.44,22.44,0,0,1,8.8-8.11A44.64,44.64,0,0,1,454,147l22.77-3.68v15l-19.09,3.41a14.2,14.2,0,0,0-6.68,2.79,7,7,0,0,0-2.32,5.66,6.25,6.25,0,0,0,2.59,5.32,10.55,10.55,0,0,0,6.41,1.91,17.58,17.58,0,0,0,8.86-2.18,15.48,15.48,0,0,0,5.94-5.94,16.54,16.54,0,0,0,2.11-8.24V141.68a9,9,0,0,0-3.34-7.09q-3.35-2.86-9.07-2.86a16,16,0,0,0-9.61,3,17.18,17.18,0,0,0-6.07,7.91l-16.36-7.77a26.59,26.59,0,0,1,6.95-10.78,33.11,33.11,0,0,1,11.46-7,41.87,41.87,0,0,1,14.59-2.45,38.6,38.6,0,0,1,16.63,3.4A27,27,0,0,1,491,127.57a25,25,0,0,1,4,14.11v49.09H476v-12l4.64-.82a35.92,35.92,0,0,1-7.23,8.12,27.24,27.24,0,0,1-8.86,4.77A35.89,35.89,0,0,1,453.59,192.41Z"/><path d="M510,190.77V116.32h19.09v18.14l-2-3q1.63-8.59,7.91-12.68a26.82,26.82,0,0,1,15-4.09,28.54,28.54,0,0,1,16.29,4.7,20,20,0,0,1,8.8,12.61l-5.86.55q3.67-9.14,10.49-13.5a29,29,0,0,1,16-4.36,28.26,28.26,0,0,1,14.25,3.54,25.6,25.6,0,0,1,9.75,9.89,29.83,29.83,0,0,1,3.54,14.79v47.86H602.76v-43.5a16.73,16.73,0,0,0-1.57-7.5,11.89,11.89,0,0,0-4.43-4.9,14.34,14.34,0,0,0-13.84,0,11.65,11.65,0,0,0-4.5,4.9,16.6,16.6,0,0,0-1.57,7.5v43.5H556.4v-43.5a16.73,16.73,0,0,0-1.57-7.5,11.89,11.89,0,0,0-4.43-4.9,14.34,14.34,0,0,0-13.84,0,11.65,11.65,0,0,0-4.5,4.9,16.6,16.6,0,0,0-1.57,7.5v43.5Z"/><path d="M672.57,192.41q-11.87,0-20.59-5.25A36.27,36.27,0,0,1,638.48,173a40.72,40.72,0,0,1-4.77-19.63,39.57,39.57,0,0,1,5-19.91,37.24,37.24,0,0,1,13.44-13.77,36.51,36.51,0,0,1,19.08-5,41.12,41.12,0,0,1,15.68,2.79,32.37,32.37,0,0,1,11.53,7.84A34.56,34.56,0,0,1,705.56,137,40.93,40.93,0,0,1,708,151.36c0,1.46-.07,2.89-.21,4.3a14.22,14.22,0,0,1-.75,3.61H651.3v-15h44.17l-9.68,7.09a19.18,19.18,0,0,0-.13-10.43,13.92,13.92,0,0,0-5.25-7.22,15.47,15.47,0,0,0-9.21-2.66,15.84,15.84,0,0,0-9.13,2.59,15.51,15.51,0,0,0-5.73,7.63,30.08,30.08,0,0,0-1.5,12.28,22.79,22.79,0,0,0,1.5,11,16,16,0,0,0,6.27,7.43,21,21,0,0,0,19.57.48,15.7,15.7,0,0,0,6.07-6l16.36,7.77a24.64,24.64,0,0,1-6.89,9.55,33.86,33.86,0,0,1-11.11,6.34A42.1,42.1,0,0,1,672.57,192.41Z"/><path class="cls-1" d="M738.56,190.77,772.92,89.19H801l34.36,101.58h-23L805.51,170H768.28l-6.81,20.73Zm35.59-39.13h25.49l-15.54-48h5.73Z"/><path class="cls-2" d="M845.87,190.77V89.19H867V190.77Z"/></g></g></svg>