<svg id="Layer_1" data-name="Layer 1" xmlns="http://www.w3.org/2000/svg" viewBox="0 0 630.02 560"><defs><style>.cls-1{opacity:0.67;}.cls-2{fill:#f7f7f7;}.cls-3{opacity:0.99;}.cls-4{opacity:0.42;}.cls-5{opacity:0.85;}.cls-6{opacity:0.91;}.cls-7{opacity:0.45;}.cls-8{opacity:0.54;}.cls-9{opacity:0.93;}.cls-10{opacity:0.32;}.cls-11{opacity:0.97;}.cls-12{opacity:0.63;}.cls-13{opacity:0.56;}.cls-14{opacity:0.3;}.cls-15{opacity:0.77;}.cls-16{opacity:0.26;}.cls-17{opacity:0.89;}.cls-18{opacity:0.51;}.cls-19{opacity:0.25;}.cls-20{opacity:0.83;}.cls-21{opacity:0.38;}.cls-22{opacity:0.82;}.cls-23{opacity:0.33;}.cls-24{opacity:0.28;}.cls-25{opacity:0.76;}.cls-26{opacity:0.9;}.cls-27{opacity:0.65;}.cls-28{opacity:0.4;}.cls-29{opacity:0.66;}.cls-30{opacity:0.94;}.cls-31{opacity:0.46;}.cls-32{opacity:0.39;}.cls-33{opacity:0.59;}.cls-34{opacity:0.78;}.cls-35{opacity:0.36;}.cls-36{opacity:0.29;}.cls-37{opacity:0.69;}.cls-38{opacity:0.6;}.cls-39{opacity:0.44;}.cls-40{opacity:0.47;}.cls-41{opacity:0.88;}.cls-42{opacity:0.79;}.cls-43{opacity:0.55;}.cls-44{opacity:0.34;}.cls-45{opacity:0.7;}.cls-46{opacity:0.49;}.cls-47{opacity:0.87;}</style></defs><g class="cls-1"><rect class="cls-2" x="8.02" y="8" width="62" height="62" rx="8"/></g><g class="cls-3"><rect class="cls-2" x="78.02" y="8" width="62" height="62" rx="8"/></g><g class="cls-4"><rect class="cls-2" x="148.02" y="8" width="62" height="62" rx="8"/></g><g class="cls-5"><rect class="cls-2" x="218.02" y="8" width="62" height="62" rx="8"/></g><g class="cls-6"><rect class="cls-2" x="288.02" y="8" width="62" height="62" rx="8"/></g><g class="cls-7"><rect class="cls-2" x="358.02" y="8" width="62" height="62" rx="8"/></g><g class="cls-8"><rect class="cls-2" x="428.02" y="8" width="62" height="62" rx="8"/></g><g class="cls-9"><rect class="cls-2" x="498.02" y="8" width="62" height="62" rx="8"/></g><g class="cls-10"><rect class="cls-2" x="568.02" y="8" width="62" height="62" rx="8"/></g><g class="cls-11"><rect class="cls-2" x="8.02" y="78" width="62" height="62" rx="8"/></g><g class="cls-12"><rect class="cls-2" x="78.02" y="78" width="62" height="62" rx="8"/></g><g class="cls-13"><rect class="cls-2" x="148.02" y="78" width="62" height="62" rx="8"/></g><g class="cls-11"><rect class="cls-2" x="218.02" y="78" width="62" height="62" rx="8"/></g><g class="cls-14"><rect class="cls-2" x="288.02" y="78" width="62" height="62" rx="8"/></g><g class="cls-8"><rect class="cls-2" x="358.02" y="78" width="62" height="62" rx="8"/></g><g class="cls-15"><rect class="cls-2" x="428.02" y="78" width="62" height="62" rx="8"/></g><g class="cls-16"><rect class="cls-2" x="498.02" y="78" width="62" height="62" rx="8"/></g><g class="cls-17"><rect class="cls-2" x="568.02" y="78" width="62" height="62" rx="8"/></g><g class="cls-14"><rect class="cls-2" x="8.02" y="148" width="62" height="62" rx="8"/></g><g class="cls-18"><rect class="cls-2" x="78.02" y="148" width="62" height="62" rx="8"/></g><g class="cls-19"><rect class="cls-2" x="148.02" y="148" width="62" height="62" rx="8"/></g><g class="cls-20"><rect class="cls-2" x="218.02" y="148" width="62" height="62" rx="8"/></g><g class="cls-21"><rect class="cls-2" x="288.02" y="148" width="62" height="62" rx="8"/></g><rect class="cls-2" x="358.02" y="148" width="62" height="62" rx="8"/><g class="cls-11"><rect class="cls-2" x="428.02" y="148" width="62" height="62" rx="8"/></g><g class="cls-22"><rect class="cls-2" x="498.02" y="148" width="62" height="62" rx="8"/></g><g class="cls-23"><rect class="cls-2" x="568.02" y="148" width="62" height="62" rx="8"/></g><g class="cls-24"><rect class="cls-2" x="8.02" y="218" width="62" height="62" rx="8"/></g><g class="cls-25"><rect class="cls-2" x="78.02" y="218" width="62" height="62" rx="8"/></g><g class="cls-9"><rect class="cls-2" x="148.02" y="218" width="62" height="62" rx="8"/></g><g class="cls-26"><rect class="cls-2" x="218.02" y="218" width="62" height="62" rx="8"/></g><g class="cls-27"><rect class="cls-2" x="288.02" y="218" width="62" height="62" rx="8"/></g><g class="cls-25"><rect class="cls-2" x="358.02" y="218" width="62" height="62" rx="8"/></g><g class="cls-28"><rect class="cls-2" x="428.02" y="218" width="62" height="62" rx="8"/></g><g class="cls-29"><rect class="cls-2" x="498.02" y="218" width="62" height="62" rx="8"/></g><g class="cls-7"><rect class="cls-2" x="568.02" y="218" width="62" height="62" rx="8"/></g><g class="cls-26"><rect class="cls-2" x="8.02" y="288" width="62" height="62" rx="8"/></g><rect class="cls-2" x="78.02" y="288" width="62" height="62" rx="8"/><g class="cls-16"><rect class="cls-2" x="148.02" y="288" width="62" height="62" rx="8"/></g><g class="cls-11"><rect class="cls-2" x="218.02" y="288" width="62" height="62" rx="8"/></g><g class="cls-22"><rect class="cls-2" x="288.02" y="288" width="62" height="62" rx="8"/></g><g class="cls-30"><rect class="cls-2" x="358.02" y="288" width="62" height="62" rx="8"/></g><g class="cls-31"><rect class="cls-2" x="428.02" y="288" width="62" height="62" rx="8"/></g><g class="cls-32"><rect class="cls-2" x="498.02" y="288" width="62" height="62" rx="8"/></g><g class="cls-33"><rect class="cls-2" x="568.02" y="288" width="62" height="62" rx="8"/></g><g class="cls-23"><rect class="cls-2" x="8.02" y="358" width="62" height="62" rx="8"/></g><g class="cls-34"><rect class="cls-2" x="78.02" y="358" width="62" height="62" rx="8"/></g><g class="cls-35"><rect class="cls-2" x="148.02" y="358" width="62" height="62" rx="8"/></g><g class="cls-36"><rect class="cls-2" x="218.02" y="358" width="62" height="62" rx="8"/></g><g class="cls-16"><rect class="cls-2" x="288.02" y="358" width="62" height="62" rx="8"/></g><g class="cls-37"><rect class="cls-2" x="358.02" y="358" width="62" height="62" rx="8"/></g><g class="cls-38"><rect class="cls-2" x="428.02" y="358" width="62" height="62" rx="8"/></g><g class="cls-34"><rect class="cls-2" x="498.02" y="358" width="62" height="62" rx="8"/></g><g class="cls-7"><rect class="cls-2" x="568.02" y="358" width="62" height="62" rx="8"/></g><g class="cls-39"><rect class="cls-2" x="8.02" y="428" width="62" height="62" rx="8"/></g><g class="cls-40"><rect class="cls-2" x="78.02" y="428" width="62" height="62" rx="8"/></g><g class="cls-40"><rect class="cls-2" x="148.02" y="428" width="62" height="62" rx="8"/></g><g class="cls-41"><rect class="cls-2" x="218.02" y="428" width="62" height="62" rx="8"/></g><g class="cls-42"><rect class="cls-2" x="288.02" y="428" width="62" height="62" rx="8"/></g><g class="cls-43"><rect class="cls-2" x="358.02" y="428" width="62" height="62" rx="8"/></g><g class="cls-44"><rect class="cls-2" x="428.02" y="428" width="62" height="62" rx="8"/></g><g class="cls-20"><rect class="cls-2" x="498.02" y="428" width="62" height="62" rx="8"/></g><g class="cls-45"><rect class="cls-2" x="568.02" y="428" width="62" height="62" rx="8"/></g><g class="cls-10"><rect class="cls-2" x="8.02" y="498" width="62" height="62" rx="8"/></g><g class="cls-15"><rect class="cls-2" x="78.02" y="498" width="62" height="62" rx="8"/></g><g class="cls-33"><rect class="cls-2" x="148.02" y="498" width="62" height="62" rx="8"/></g><g class="cls-46"><rect class="cls-2" x="218.02" y="498" width="62" height="62" rx="8"/></g><g class="cls-23"><rect class="cls-2" x="288.02" y="498" width="62" height="62" rx="8"/></g><g class="cls-10"><rect class="cls-2" x="358.02" y="498" width="62" height="62" rx="8"/></g><g class="cls-47"><rect class="cls-2" x="568.02" y="498" width="62" height="62" rx="8"/></g></svg>